<?xml version="1.0" encoding="UTF-8" standalone="no"?>
<svg
   viewBox="0 0 256 256"
   width="256"
   height="256"
   version="1.1"
   id="svg4"
   sodipodi:docname="icon.svg"
   inkscape:version="1.4.2 (f4327f4, 2025-05-13)"
   xmlns:inkscape="http://www.inkscape.org/namespaces/inkscape"
   xmlns:sodipodi="http://sodipodi.sourceforge.net/DTD/sodipodi-0.dtd"
   xmlns="http://www.w3.org/2000/svg"
   xmlns:svg="http://www.w3.org/2000/svg">
  <defs
     id="defs4">
    <rect
       x="110.34886"
       y="171.13425"
       width="35.536073"
       height="27.353425"
       id="rect8" />
    <rect
       x="90.242922"
       y="144.94977"
       width="73.643836"
       height="59.148858"
       id="rect7" />
  </defs>
  <sodipodi:namedview
     id="namedview4"
     pagecolor="#ffffff"
     bordercolor="#000000"
     borderopacity="0.25"
     inkscape:showpageshadow="2"
     inkscape:pageopacity="0.0"
     inkscape:pagecheckerboard="0"
     inkscape:deskcolor="#d1d1d1"
     inkscape:zoom="4.2773438"
     inkscape:cx="128"
     inkscape:cy="146.7032"
     inkscape:window-width="2560"
     inkscape:window-height="1334"
     inkscape:window-x="-11"
     inkscape:window-y="-11"
     inkscape:window-maximized="1"
     inkscape:current-layer="svg4" />
  <!-- Left brace -->
  <path
     d="M92 48        C68 48 64 64 64 88        V104        C64 116 56 120 48 120        C56 120 64 124 64 136        V168        C64 192 68 208 92 208"
     fill="none"
     stroke="#1E1E1E"
     stroke-width="16"
     stroke-linecap="round"
     stroke-linejoin="round"
     id="path1" />
  <!-- Right brace -->
  <path
     d="M164 48        C188 48 192 64 192 88        V104        C192 116 200 120 208 120        C200 120 192 124 192 136        V168        C192 192 188 208 164 208"
     fill="none"
     stroke="#1E1E1E"
     stroke-width="16"
     stroke-linecap="round"
     stroke-linejoin="round"
     id="path2" />
  <!-- Flame (outer) -->
  <path
     d="m 128.57351,54.957077 c -22.61519,24.896897 -40.707344,49.793773 -36.184302,81.804073 4.523042,39.12369 36.184302,64.02059 36.184302,64.02059 0,0 31.66128,-24.8969 36.18432,-64.02059 4.52304,-32.0103 -13.56911,-56.907176 -36.18432,-81.804073 z"
     fill="#ff7a18"
     id="path3"
     style="stroke-width:2.00544" />
  <!-- Flame core -->
  <path
     d="m 128.57351,79.853974 c -13.56912,17.783485 -18.09215,32.010296 -15.83064,48.015436 4.52304,23.11854 15.83064,33.78865 15.83064,33.78865 0,0 11.30761,-10.67011 15.83063,-33.78865 2.26152,-16.00514 -2.26152,-30.231951 -15.83063,-48.015436 z"
     fill="#ffd28a"
     id="path4"
     style="stroke-width:2.00544" />
</svg>
