<?xml version="1.0" encoding="UTF-8" standalone="no"?>
<svg
   viewBox="0 0 256 256"
   width="256"
   height="256"
   version="1.1"
   id="svg4"
   sodipodi:docname="logo.svg"
   inkscape:version="1.4.2 (f4327f4, 2025-05-13)"
   xmlns:inkscape="http://www.inkscape.org/namespaces/inkscape"
   xmlns:sodipodi="http://sodipodi.sourceforge.net/DTD/sodipodi-0.dtd"
   xmlns="http://www.w3.org/2000/svg"
   xmlns:svg="http://www.w3.org/2000/svg">
  <defs
     id="defs4">
    <rect
       x="110.34886"
       y="171.13425"
       width="35.536073"
       height="27.353425"
       id="rect8" />
    <rect
       x="90.242922"
       y="144.94977"
       width="73.643836"
       height="59.148858"
       id="rect7" />
  </defs>
  <sodipodi:namedview
     id="namedview4"
     pagecolor="#ffffff"
     bordercolor="#000000"
     borderopacity="0.25"
     inkscape:showpageshadow="2"
     inkscape:pageopacity="0.0"
     inkscape:pagecheckerboard="0"
     inkscape:deskcolor="#d1d1d1"
     inkscape:zoom="4.2773438"
     inkscape:cx="128"
     inkscape:cy="146.7032"
     inkscape:window-width="2560"
     inkscape:window-height="1334"
     inkscape:window-x="-11"
     inkscape:window-y="-11"
     inkscape:window-maximized="1"
     inkscape:current-layer="svg4" />
  <!-- Left brace -->
  <path
     d="M92 48        C68 48 64 64 64 88        V104        C64 116 56 120 48 120        C56 120 64 124 64 136        V168        C64 192 68 208 92 208"
     fill="none"
     stroke="#1E1E1E"
     stroke-width="16"
     stroke-linecap="round"
     stroke-linejoin="round"
     id="path1" />
  <!-- Right brace -->
  <path
     d="M164 48        C188 48 192 64 192 88        V104        C192 116 200 120 208 120        C200 120 192 124 192 136        V168        C192 192 188 208 164 208"
     fill="none"
     stroke="#1E1E1E"
     stroke-width="16"
     stroke-linecap="round"
     stroke-linejoin="round"
     id="path2" />
  <!-- Flame (outer) -->
  <path
     d="M 127.72785,35.713242 C 114.21567,51.469518 103.40592,67.225794 106.10836,87.483862 108.8108,112.24372 127.72785,128 127.72785,128 c 0,0 18.91706,-15.75628 21.6195,-40.516138 2.70244,-20.258068 -8.10731,-36.014344 -21.6195,-51.77062 z"
     fill="#ff7a18"
     id="path3"
     style="stroke-width:1.23318" />
  <!-- Flame core -->
  <path
     d="m 127.72785,51.469518 c -8.10731,11.254482 -10.80974,20.258069 -9.45853,30.387103 2.70244,14.630829 9.45853,21.383519 9.45853,21.383519 0,0 6.7561,-6.75269 9.45853,-21.383519 C 138.5376,71.727587 135.83516,62.724 127.72785,51.469518 Z"
     fill="#ffd28a"
     id="path4"
     style="stroke-width:1.23318" />
  <text
     xml:space="preserve"
     id="text7"
     style="font-style:normal;font-variant:normal;font-weight:normal;font-stretch:normal;font-size:85.3333px;line-height:0%;font-family:Calibri;-inkscape-font-specification:Calibri;font-variant-ligatures:normal;font-variant-caps:normal;font-variant-numeric:normal;font-variant-east-asian:normal;text-align:center;writing-mode:lr-tb;direction:ltr;white-space:pre;shape-inside:url(#rect7);shape-padding:0.46758;display:inline;fill:#1f241c"
     x="-7.6796875"
     y="0"
     inkscape:label="text7"
     transform="matrix(1.3605127,0,0,1.1123624,-47.480022,-21.562137)"><tspan
       x="103.62695"
       y="200.42401"
       id="tspan2"><tspan
         style="font-size:96px;line-height:64.6%;letter-spacing:0.02px"
         id="tspan1">E</tspan></tspan></text>
</svg>
